<svg id="SvgjsSvg1056" width="380" height="373" xmlns="http://www.w3.org/2000/svg" version="1.1" xmlns:xlink="http://www.w3.org/1999/xlink" xmlns:svgjs="http://svgjs.com/svgjs"><defs id="SvgjsDefs1057"></defs><g id="SvgjsG1058" transform="translate(142,255)"><path id="SvgjsPath1059" d="M 0 0L 100 0L 100 44L 0 44Z" stroke="#323232" stroke-width="2" fill-opacity="1" fill="#cce5ff"></path><g id="SvgjsG1060"><text id="SvgjsText1061" font-family="微软雅黑" text-anchor="middle" font-size="13px" width="39" fill="#323232" font-weight="400" align="middle" anchor="middle" family="微软雅黑" size="13px" weight="400" font-style="" y="12.05" transform="rotate(0)"><tspan id="SvgjsTspan1062" dy="16" x="50"><tspan id="SvgjsTspan1063" style="text-decoration:;">代码段</tspan></tspan></text></g></g><g id="SvgjsG1064" transform="translate(142,218)"><path id="SvgjsPath1065" d="M 0 0L 100 0L 100 37L 0 37Z" stroke="#323232" stroke-width="2" fill-opacity="1" fill="#e5ccff"></path><g id="SvgjsG1066"><text id="SvgjsText1067" font-family="微软雅黑" text-anchor="middle" font-size="13px" width="39" fill="#323232" font-weight="400" align="middle" anchor="middle" family="微软雅黑" size="13px" weight="400" font-style="" y="8.55" transform="rotate(0)"><tspan id="SvgjsTspan1068" dy="16" x="50"><tspan id="SvgjsTspan1069" style="text-decoration:;">数据段</tspan></tspan></text></g></g><g id="SvgjsG1070" transform="translate(142,180)"><path id="SvgjsPath1071" d="M 0 0L 100 0L 100 38L 0 38Z" stroke="#323232" stroke-width="2" fill-opacity="1" fill="#ffcc99"></path><g id="SvgjsG1072"><text id="SvgjsText1073" font-family="微软雅黑" text-anchor="middle" font-size="13px" width="38" fill="#323232" font-weight="400" align="middle" anchor="middle" family="微软雅黑" size="13px" weight="400" font-style="" y="9.05" transform="rotate(0)"><tspan id="SvgjsTspan1074" dy="16" x="50"><tspan id="SvgjsTspan1075" style="text-decoration:;">BSS段</tspan></tspan></text></g></g><g id="SvgjsG1076" transform="translate(142,72)"><path id="SvgjsPath1077" d="M 0 0L 100 0L 100 70L 0 70Z" stroke="#323232" stroke-width="2" fill-opacity="1" fill="#ffffff"></path><g id="SvgjsG1078"><text id="SvgjsText1079" font-family="微软雅黑" text-anchor="middle" font-size="13px" width="0" fill="#323232" font-weight="400" align="middle" anchor="middle" family="微软雅黑" size="13px" weight="400" font-style="" y="25.05" transform="rotate(0)"></text></g></g><g id="SvgjsG1080" transform="translate(142,142)"><path id="SvgjsPath1081" d="M 0 0L 100 0L 100 38L 0 38Z" stroke="#323232" stroke-width="2" fill-opacity="1" fill="#ccffcc"></path><g id="SvgjsG1082"><text id="SvgjsText1083" font-family="微软雅黑" text-anchor="middle" font-size="13px" width="13" fill="#323232" font-weight="400" align="middle" anchor="middle" family="微软雅黑" size="13px" weight="400" font-style="" y="9.05" transform="rotate(0)"><tspan id="SvgjsTspan1084" dy="16" x="50"><tspan id="SvgjsTspan1085" style="text-decoration:;">堆</tspan></tspan></text></g></g><g id="SvgjsG1086" transform="translate(142,36.5)"><path id="SvgjsPath1087" d="M 0 0L 100 0L 100 38L 0 38Z" stroke="#323232" stroke-width="2" fill-opacity="1" fill="#ffff99"></path><g id="SvgjsG1088"><text id="SvgjsText1089" font-family="微软雅黑" text-anchor="middle" font-size="13px" width="13" fill="#323232" font-weight="400" align="middle" anchor="middle" family="微软雅黑" size="13px" weight="400" font-style="" y="9.05" transform="rotate(0)"><tspan id="SvgjsTspan1090" dy="16" x="50"><tspan id="SvgjsTspan1091" style="text-decoration:;">栈</tspan></tspan></text></g></g><g id="SvgjsG1092" transform="matrix(-1,1.2246467991473532e-16,-1.2246467991473532e-16,-1,224,142)"><path id="SvgjsPath1093" d="M 8.25 0L 16.75 0L 16.75 46.5L 25 46.5L 12.5 59L 0 46.5L 8.25 46.5L 8.25 0Z" stroke="#323232" stroke-width="2" fill-opacity="1" fill="#e6ffcc"></path><g id="SvgjsG1094"><text id="SvgjsText1095" font-family="微软雅黑" text-anchor="middle" font-size="13px" width="0" fill="#323232" font-weight="400" align="middle" anchor="middle" family="微软雅黑" size="13px" weight="400" font-style="" y="16.600000000000005" transform="rotate(0)"></text></g></g><g id="SvgjsG1096" transform="translate(159,74.5)"><path id="SvgjsPath1097" d="M 8.25 0L 16.75 0L 16.75 46.5L 25 46.5L 12.5 59L 0 46.5L 8.25 46.5L 8.25 0Z" stroke="#323232" stroke-width="2" fill-opacity="1" fill="#ffff99"></path><g id="SvgjsG1098"><text id="SvgjsText1099" font-family="微软雅黑" text-anchor="middle" font-size="13px" width="0" fill="#323232" font-weight="400" align="middle" anchor="middle" family="微软雅黑" size="13px" weight="400" font-style="" y="16.600000000000005" transform="rotate(0)"></text></g></g><g id="SvgjsG1100" transform="translate(132,308)"><path id="SvgjsPath1101" d="M 0 0L 120 0L 120 40L 0 40Z" stroke="none" fill="none"></path><g id="SvgjsG1102"><text id="SvgjsText1103" font-family="微软雅黑" text-anchor="middle" font-size="13px" width="78" fill="#323232" font-weight="400" align="middle" anchor="middle" family="微软雅黑" size="13px" weight="400" font-style="" y="10.05" transform="rotate(0)"><tspan id="SvgjsTspan1104" dy="16" x="60"><tspan id="SvgjsTspan1105" style="text-decoration:;">用户内存空间</tspan></tspan></text></g></g><g id="SvgjsG1106" transform="translate(25,74.5)"><path id="SvgjsPath1107" d="M 107 0Q 98 0 98 6.75L 98 27Q 98 33.75 85 33.75Q 98 33.75 98 40.5L 98 60.75Q 98 67.5 107 67.5" stroke="#323232" stroke-width="2" fill="none"></path><path id="SvgjsPath1108" d="M 0 0L 107 0L 107 67.5L 0 67.5Z" stroke="none" fill="none"></path><g id="SvgjsG1109"><text id="SvgjsText1110" font-family="微软雅黑" text-anchor="end" font-size="13px" width="65" fill="#323232" font-weight="400" align="middle" anchor="end" family="微软雅黑" size="13px" weight="400" font-style="" y="15.8" transform="rotate(0)"><tspan id="SvgjsTspan1111" dy="16" x="80"><tspan id="SvgjsTspan1112" style="text-decoration:;">栈向下增长</tspan></tspan><tspan id="SvgjsTspan1113" dy="16" x="80"><tspan id="SvgjsTspan1114" style="text-decoration:;">堆向上增长</tspan></tspan></text></g></g><g id="SvgjsG1115" transform="translate(235,271)"><path id="SvgjsPath1116" d="M 0 0L 120 0L 120 40L 0 40Z" stroke="none" fill="none"></path><g id="SvgjsG1117"><text id="SvgjsText1118" font-family="微软雅黑" text-anchor="middle" font-size="13px" width="39" fill="#323232" font-weight="400" align="middle" anchor="middle" family="微软雅黑" size="13px" weight="400" font-style="" y="10.05" transform="rotate(0)"><tspan id="SvgjsTspan1119" dy="16" x="60"><tspan id="SvgjsTspan1120" style="text-decoration:;">低地址</tspan></tspan></text></g></g><g id="SvgjsG1121" transform="translate(235,25)"><path id="SvgjsPath1122" d="M 0 0L 120 0L 120 40L 0 40Z" stroke="none" fill="none"></path><g id="SvgjsG1123"><text id="SvgjsText1124" font-family="微软雅黑" text-anchor="middle" font-size="13px" width="39" fill="#323232" font-weight="400" align="middle" anchor="middle" family="微软雅黑" size="13px" weight="400" font-style="" y="10.05" transform="rotate(0)"><tspan id="SvgjsTspan1125" dy="16" x="60"><tspan id="SvgjsTspan1126" style="text-decoration:;">高地址</tspan></tspan></text></g></g></svg>